<mxfile host="Electron" modified="2023-12-17T22:00:58.229Z" agent="Mozilla/5.0 (Windows NT 10.0; Win64; x64) AppleWebKit/537.36 (KHTML, like Gecko) draw.io/22.0.3 Chrome/114.0.5735.289 Electron/25.8.4 Safari/537.36" etag="DYtEcfGME5Hmqtjj92Zf" version="22.0.3" type="device">
  <diagram name="PÃ¡gina-1" id="WFsSfJkQnKVZHYzSm0Dw">
    <mxGraphModel dx="2261" dy="2013" grid="1" gridSize="10" guides="1" tooltips="1" connect="1" arrows="1" fold="1" page="1" pageScale="1" pageWidth="827" pageHeight="1169" math="0" shadow="0">
      <root>
        <mxCell id="0" />
        <mxCell id="1" parent="0" />
        <mxCell id="4tsB5gcW5lk2AVEdW1aV-32" style="rounded=0;orthogonalLoop=1;jettySize=auto;html=1;strokeColor=#DDA15E;fontColor=#FEFAE0;fillColor=#BC6C25;endArrow=none;endFill=0;" edge="1" parent="1" source="4tsB5gcW5lk2AVEdW1aV-1" target="4tsB5gcW5lk2AVEdW1aV-24">
          <mxGeometry relative="1" as="geometry" />
        </mxCell>
        <mxCell id="4tsB5gcW5lk2AVEdW1aV-33" style="edgeStyle=none;shape=connector;rounded=0;orthogonalLoop=1;jettySize=auto;html=1;labelBackgroundColor=default;strokeColor=#DDA15E;align=center;verticalAlign=middle;fontFamily=Helvetica;fontSize=11;fontColor=#FEFAE0;endArrow=none;endFill=0;fillColor=#BC6C25;" edge="1" parent="1" source="4tsB5gcW5lk2AVEdW1aV-1" target="4tsB5gcW5lk2AVEdW1aV-28">
          <mxGeometry relative="1" as="geometry" />
        </mxCell>
        <mxCell id="4tsB5gcW5lk2AVEdW1aV-34" style="edgeStyle=none;shape=connector;rounded=0;orthogonalLoop=1;jettySize=auto;html=1;labelBackgroundColor=default;strokeColor=#DDA15E;align=center;verticalAlign=middle;fontFamily=Helvetica;fontSize=11;fontColor=#FEFAE0;endArrow=none;endFill=0;fillColor=#BC6C25;" edge="1" parent="1" source="4tsB5gcW5lk2AVEdW1aV-1" target="4tsB5gcW5lk2AVEdW1aV-29">
          <mxGeometry relative="1" as="geometry" />
        </mxCell>
        <mxCell id="4tsB5gcW5lk2AVEdW1aV-35" style="edgeStyle=none;shape=connector;rounded=0;orthogonalLoop=1;jettySize=auto;html=1;labelBackgroundColor=default;strokeColor=#DDA15E;align=center;verticalAlign=middle;fontFamily=Helvetica;fontSize=11;fontColor=#FEFAE0;endArrow=none;endFill=0;fillColor=#BC6C25;" edge="1" parent="1" source="4tsB5gcW5lk2AVEdW1aV-1" target="4tsB5gcW5lk2AVEdW1aV-30">
          <mxGeometry relative="1" as="geometry" />
        </mxCell>
        <mxCell id="4tsB5gcW5lk2AVEdW1aV-36" style="edgeStyle=none;shape=connector;rounded=0;orthogonalLoop=1;jettySize=auto;html=1;labelBackgroundColor=default;strokeColor=#DDA15E;align=center;verticalAlign=middle;fontFamily=Helvetica;fontSize=11;fontColor=#FEFAE0;endArrow=none;endFill=0;fillColor=#BC6C25;" edge="1" parent="1" source="4tsB5gcW5lk2AVEdW1aV-1" target="4tsB5gcW5lk2AVEdW1aV-31">
          <mxGeometry relative="1" as="geometry" />
        </mxCell>
        <mxCell id="4tsB5gcW5lk2AVEdW1aV-1" value="EMPLEADO" style="whiteSpace=wrap;html=1;align=center;labelBackgroundColor=none;fillColor=#BC6C25;strokeColor=#DDA15E;fontColor=#FEFAE0;" vertex="1" parent="1">
          <mxGeometry x="80" y="120" width="100" height="40" as="geometry" />
        </mxCell>
        <mxCell id="4tsB5gcW5lk2AVEdW1aV-39" style="edgeStyle=none;shape=connector;rounded=0;orthogonalLoop=1;jettySize=auto;html=1;labelBackgroundColor=default;strokeColor=#DDA15E;align=center;verticalAlign=middle;fontFamily=Helvetica;fontSize=11;fontColor=#FEFAE0;endArrow=none;endFill=0;fillColor=#BC6C25;" edge="1" parent="1" source="4tsB5gcW5lk2AVEdW1aV-2" target="4tsB5gcW5lk2AVEdW1aV-17">
          <mxGeometry relative="1" as="geometry" />
        </mxCell>
        <mxCell id="4tsB5gcW5lk2AVEdW1aV-2" value="TRANSPORTISTA" style="whiteSpace=wrap;html=1;align=center;labelBackgroundColor=none;fillColor=#BC6C25;strokeColor=#DDA15E;fontColor=#FEFAE0;" vertex="1" parent="1">
          <mxGeometry x="80" y="360" width="100" height="40" as="geometry" />
        </mxCell>
        <mxCell id="4tsB5gcW5lk2AVEdW1aV-3" value="" style="triangle;whiteSpace=wrap;html=1;rotation=91;labelBackgroundColor=none;fillColor=#BC6C25;strokeColor=#DDA15E;fontColor=#FEFAE0;" vertex="1" parent="1">
          <mxGeometry x="100" y="190" width="60" height="80" as="geometry" />
        </mxCell>
        <mxCell id="4tsB5gcW5lk2AVEdW1aV-4" value="" style="ellipse;whiteSpace=wrap;html=1;aspect=fixed;labelBackgroundColor=none;fillColor=#BC6C25;strokeColor=#DDA15E;fontColor=#FEFAE0;" vertex="1" parent="1">
          <mxGeometry x="125" y="180" width="10" height="10" as="geometry" />
        </mxCell>
        <mxCell id="4tsB5gcW5lk2AVEdW1aV-5" value="" style="endArrow=none;html=1;rounded=0;exitX=0.5;exitY=0;exitDx=0;exitDy=0;labelBackgroundColor=none;strokeColor=#DDA15E;fontColor=default;" edge="1" source="4tsB5gcW5lk2AVEdW1aV-4" target="4tsB5gcW5lk2AVEdW1aV-1" parent="1">
          <mxGeometry relative="1" as="geometry">
            <mxPoint x="-20" y="210" as="sourcePoint" />
            <mxPoint x="140" y="210" as="targetPoint" />
          </mxGeometry>
        </mxCell>
        <mxCell id="4tsB5gcW5lk2AVEdW1aV-6" value="" style="endArrow=none;html=1;rounded=0;entryX=0.5;entryY=1;entryDx=0;entryDy=0;labelBackgroundColor=none;strokeColor=#DDA15E;fontColor=default;" edge="1" source="4tsB5gcW5lk2AVEdW1aV-3" target="4tsB5gcW5lk2AVEdW1aV-4" parent="1">
          <mxGeometry relative="1" as="geometry">
            <mxPoint x="90" y="240" as="sourcePoint" />
            <mxPoint x="250" y="240" as="targetPoint" />
          </mxGeometry>
        </mxCell>
        <mxCell id="4tsB5gcW5lk2AVEdW1aV-7" value="" style="endArrow=none;html=1;rounded=0;labelBackgroundColor=none;strokeColor=#DDA15E;fontColor=default;" edge="1" source="4tsB5gcW5lk2AVEdW1aV-3" target="4tsB5gcW5lk2AVEdW1aV-2" parent="1">
          <mxGeometry relative="1" as="geometry">
            <mxPoint x="180" y="220" as="sourcePoint" />
            <mxPoint x="340" y="220" as="targetPoint" />
          </mxGeometry>
        </mxCell>
        <mxCell id="4tsB5gcW5lk2AVEdW1aV-72" value="(0,1)" style="edgeLabel;html=1;align=center;verticalAlign=middle;resizable=0;points=[];fontSize=11;fontFamily=Helvetica;fontColor=#FEFAE0;" vertex="1" connectable="0" parent="4tsB5gcW5lk2AVEdW1aV-7">
          <mxGeometry x="0.1068" y="-1" relative="1" as="geometry">
            <mxPoint as="offset" />
          </mxGeometry>
        </mxCell>
        <mxCell id="4tsB5gcW5lk2AVEdW1aV-40" style="edgeStyle=none;shape=connector;rounded=0;orthogonalLoop=1;jettySize=auto;html=1;labelBackgroundColor=default;strokeColor=#DDA15E;align=center;verticalAlign=middle;fontFamily=Helvetica;fontSize=11;fontColor=#FEFAE0;endArrow=none;endFill=0;fillColor=#BC6C25;" edge="1" parent="1" source="4tsB5gcW5lk2AVEdW1aV-8" target="4tsB5gcW5lk2AVEdW1aV-18">
          <mxGeometry relative="1" as="geometry" />
        </mxCell>
        <mxCell id="4tsB5gcW5lk2AVEdW1aV-8" value="OFICINISTA" style="whiteSpace=wrap;html=1;align=center;labelBackgroundColor=none;fillColor=#BC6C25;strokeColor=#DDA15E;fontColor=#FEFAE0;" vertex="1" parent="1">
          <mxGeometry x="-20" y="340" width="80" height="40" as="geometry" />
        </mxCell>
        <mxCell id="4tsB5gcW5lk2AVEdW1aV-38" style="edgeStyle=none;shape=connector;rounded=0;orthogonalLoop=1;jettySize=auto;html=1;labelBackgroundColor=default;strokeColor=#DDA15E;align=center;verticalAlign=middle;fontFamily=Helvetica;fontSize=11;fontColor=#FEFAE0;endArrow=none;endFill=0;fillColor=#BC6C25;" edge="1" parent="1" source="4tsB5gcW5lk2AVEdW1aV-9" target="4tsB5gcW5lk2AVEdW1aV-19">
          <mxGeometry relative="1" as="geometry" />
        </mxCell>
        <mxCell id="4tsB5gcW5lk2AVEdW1aV-41" style="edgeStyle=none;shape=connector;rounded=0;orthogonalLoop=1;jettySize=auto;html=1;labelBackgroundColor=default;strokeColor=#DDA15E;align=center;verticalAlign=middle;fontFamily=Helvetica;fontSize=11;fontColor=#FEFAE0;endArrow=none;endFill=0;fillColor=#BC6C25;" edge="1" parent="1" source="4tsB5gcW5lk2AVEdW1aV-9" target="4tsB5gcW5lk2AVEdW1aV-15">
          <mxGeometry relative="1" as="geometry" />
        </mxCell>
        <mxCell id="4tsB5gcW5lk2AVEdW1aV-77" value="(1,N)" style="edgeLabel;html=1;align=center;verticalAlign=middle;resizable=0;points=[];fontSize=11;fontFamily=Helvetica;fontColor=#FEFAE0;" vertex="1" connectable="0" parent="4tsB5gcW5lk2AVEdW1aV-41">
          <mxGeometry y="2" relative="1" as="geometry">
            <mxPoint as="offset" />
          </mxGeometry>
        </mxCell>
        <mxCell id="4tsB5gcW5lk2AVEdW1aV-9" value="VENDEDOR" style="whiteSpace=wrap;html=1;align=center;labelBackgroundColor=none;fillColor=#BC6C25;strokeColor=#DDA15E;fontColor=#FEFAE0;" vertex="1" parent="1">
          <mxGeometry x="230" y="320" width="80" height="40" as="geometry" />
        </mxCell>
        <mxCell id="4tsB5gcW5lk2AVEdW1aV-10" value="" style="endArrow=none;html=1;rounded=0;labelBackgroundColor=none;strokeColor=#DDA15E;fontColor=default;" edge="1" source="4tsB5gcW5lk2AVEdW1aV-3" target="4tsB5gcW5lk2AVEdW1aV-9" parent="1">
          <mxGeometry relative="1" as="geometry">
            <mxPoint x="140" y="269" as="sourcePoint" />
            <mxPoint x="140" y="300" as="targetPoint" />
          </mxGeometry>
        </mxCell>
        <mxCell id="4tsB5gcW5lk2AVEdW1aV-71" value="(0,1)" style="edgeLabel;html=1;align=center;verticalAlign=middle;resizable=0;points=[];fontSize=11;fontFamily=Helvetica;fontColor=#FEFAE0;" vertex="1" connectable="0" parent="4tsB5gcW5lk2AVEdW1aV-10">
          <mxGeometry x="0.2427" relative="1" as="geometry">
            <mxPoint as="offset" />
          </mxGeometry>
        </mxCell>
        <mxCell id="4tsB5gcW5lk2AVEdW1aV-11" value="" style="endArrow=none;html=1;rounded=0;labelBackgroundColor=none;strokeColor=#DDA15E;fontColor=default;" edge="1" source="4tsB5gcW5lk2AVEdW1aV-3" target="4tsB5gcW5lk2AVEdW1aV-8" parent="1">
          <mxGeometry relative="1" as="geometry">
            <mxPoint x="152" y="252" as="sourcePoint" />
            <mxPoint x="200" y="300" as="targetPoint" />
          </mxGeometry>
        </mxCell>
        <mxCell id="4tsB5gcW5lk2AVEdW1aV-73" value="(0,1)" style="edgeLabel;html=1;align=center;verticalAlign=middle;resizable=0;points=[];fontSize=11;fontFamily=Helvetica;fontColor=#FEFAE0;" vertex="1" connectable="0" parent="4tsB5gcW5lk2AVEdW1aV-11">
          <mxGeometry x="0.1806" y="-1" relative="1" as="geometry">
            <mxPoint as="offset" />
          </mxGeometry>
        </mxCell>
        <mxCell id="4tsB5gcW5lk2AVEdW1aV-12" value="" style="endArrow=none;html=1;rounded=0;edgeStyle=orthogonalEdgeStyle;curved=1;labelBackgroundColor=none;strokeColor=#DDA15E;fontColor=default;" edge="1" parent="1">
          <mxGeometry width="50" height="50" relative="1" as="geometry">
            <mxPoint x="62.5" y="247" as="sourcePoint" />
            <mxPoint x="197.5" y="243" as="targetPoint" />
            <Array as="points">
              <mxPoint x="62.5" y="270" />
              <mxPoint x="197.5" y="270" />
            </Array>
          </mxGeometry>
        </mxCell>
        <mxCell id="4tsB5gcW5lk2AVEdW1aV-63" style="edgeStyle=none;shape=connector;rounded=0;orthogonalLoop=1;jettySize=auto;html=1;labelBackgroundColor=default;strokeColor=#DDA15E;align=center;verticalAlign=middle;fontFamily=Helvetica;fontSize=11;fontColor=#FEFAE0;endArrow=none;endFill=0;fillColor=#BC6C25;" edge="1" parent="1" source="4tsB5gcW5lk2AVEdW1aV-13" target="4tsB5gcW5lk2AVEdW1aV-62">
          <mxGeometry relative="1" as="geometry" />
        </mxCell>
        <mxCell id="4tsB5gcW5lk2AVEdW1aV-64" style="edgeStyle=none;shape=connector;rounded=0;orthogonalLoop=1;jettySize=auto;html=1;labelBackgroundColor=default;strokeColor=#DDA15E;align=center;verticalAlign=middle;fontFamily=Helvetica;fontSize=11;fontColor=#FEFAE0;endArrow=none;endFill=0;fillColor=#BC6C25;" edge="1" parent="1" source="4tsB5gcW5lk2AVEdW1aV-13" target="4tsB5gcW5lk2AVEdW1aV-61">
          <mxGeometry relative="1" as="geometry" />
        </mxCell>
        <mxCell id="4tsB5gcW5lk2AVEdW1aV-65" style="edgeStyle=none;shape=connector;rounded=0;orthogonalLoop=1;jettySize=auto;html=1;labelBackgroundColor=default;strokeColor=#DDA15E;align=center;verticalAlign=middle;fontFamily=Helvetica;fontSize=11;fontColor=#FEFAE0;endArrow=none;endFill=0;fillColor=#BC6C25;" edge="1" parent="1" source="4tsB5gcW5lk2AVEdW1aV-13" target="4tsB5gcW5lk2AVEdW1aV-60">
          <mxGeometry relative="1" as="geometry" />
        </mxCell>
        <mxCell id="4tsB5gcW5lk2AVEdW1aV-13" value="PROVEEDOR" style="whiteSpace=wrap;html=1;align=center;labelBackgroundColor=none;fillColor=#BC6C25;strokeColor=#DDA15E;fontColor=#FEFAE0;" vertex="1" parent="1">
          <mxGeometry x="600" y="600" width="100" height="40" as="geometry" />
        </mxCell>
        <mxCell id="4tsB5gcW5lk2AVEdW1aV-43" style="edgeStyle=none;shape=connector;rounded=0;orthogonalLoop=1;jettySize=auto;html=1;labelBackgroundColor=default;strokeColor=#DDA15E;align=center;verticalAlign=middle;fontFamily=Helvetica;fontSize=11;fontColor=#FEFAE0;endArrow=none;endFill=0;fillColor=#BC6C25;" edge="1" parent="1" source="4tsB5gcW5lk2AVEdW1aV-14" target="4tsB5gcW5lk2AVEdW1aV-16">
          <mxGeometry relative="1" as="geometry" />
        </mxCell>
        <mxCell id="4tsB5gcW5lk2AVEdW1aV-76" value="(0,N)" style="edgeLabel;html=1;align=center;verticalAlign=middle;resizable=0;points=[];fontSize=11;fontFamily=Helvetica;fontColor=#FEFAE0;" vertex="1" connectable="0" parent="4tsB5gcW5lk2AVEdW1aV-43">
          <mxGeometry x="-0.1111" y="1" relative="1" as="geometry">
            <mxPoint as="offset" />
          </mxGeometry>
        </mxCell>
        <mxCell id="4tsB5gcW5lk2AVEdW1aV-55" style="edgeStyle=none;shape=connector;rounded=0;orthogonalLoop=1;jettySize=auto;html=1;labelBackgroundColor=default;strokeColor=#DDA15E;align=center;verticalAlign=middle;fontFamily=Helvetica;fontSize=11;fontColor=#FEFAE0;endArrow=none;endFill=0;fillColor=#BC6C25;" edge="1" parent="1" source="4tsB5gcW5lk2AVEdW1aV-14" target="4tsB5gcW5lk2AVEdW1aV-51">
          <mxGeometry relative="1" as="geometry" />
        </mxCell>
        <mxCell id="4tsB5gcW5lk2AVEdW1aV-56" style="edgeStyle=none;shape=connector;rounded=0;orthogonalLoop=1;jettySize=auto;html=1;labelBackgroundColor=default;strokeColor=#DDA15E;align=center;verticalAlign=middle;fontFamily=Helvetica;fontSize=11;fontColor=#FEFAE0;endArrow=none;endFill=0;fillColor=#BC6C25;" edge="1" parent="1" source="4tsB5gcW5lk2AVEdW1aV-14" target="4tsB5gcW5lk2AVEdW1aV-52">
          <mxGeometry relative="1" as="geometry" />
        </mxCell>
        <mxCell id="4tsB5gcW5lk2AVEdW1aV-57" style="edgeStyle=none;shape=connector;rounded=0;orthogonalLoop=1;jettySize=auto;html=1;labelBackgroundColor=default;strokeColor=#DDA15E;align=center;verticalAlign=middle;fontFamily=Helvetica;fontSize=11;fontColor=#FEFAE0;endArrow=none;endFill=0;fillColor=#BC6C25;" edge="1" parent="1" source="4tsB5gcW5lk2AVEdW1aV-14" target="4tsB5gcW5lk2AVEdW1aV-53">
          <mxGeometry relative="1" as="geometry" />
        </mxCell>
        <mxCell id="4tsB5gcW5lk2AVEdW1aV-59" style="edgeStyle=none;shape=connector;rounded=0;orthogonalLoop=1;jettySize=auto;html=1;labelBackgroundColor=default;strokeColor=#DDA15E;align=center;verticalAlign=middle;fontFamily=Helvetica;fontSize=11;fontColor=#FEFAE0;endArrow=none;endFill=0;fillColor=#BC6C25;" edge="1" parent="1" source="4tsB5gcW5lk2AVEdW1aV-14" target="4tsB5gcW5lk2AVEdW1aV-58">
          <mxGeometry relative="1" as="geometry" />
        </mxCell>
        <mxCell id="4tsB5gcW5lk2AVEdW1aV-14" value="ARTICULO" style="shape=ext;margin=3;double=1;whiteSpace=wrap;html=1;align=center;labelBackgroundColor=none;fillColor=#BC6C25;strokeColor=#DDA15E;fontColor=#FEFAE0;" vertex="1" parent="1">
          <mxGeometry x="600" y="320" width="100" height="40" as="geometry" />
        </mxCell>
        <mxCell id="4tsB5gcW5lk2AVEdW1aV-42" style="edgeStyle=none;shape=connector;rounded=0;orthogonalLoop=1;jettySize=auto;html=1;exitX=1;exitY=0.5;exitDx=0;exitDy=0;labelBackgroundColor=default;strokeColor=#DDA15E;align=center;verticalAlign=middle;fontFamily=Helvetica;fontSize=11;fontColor=#FEFAE0;endArrow=none;endFill=0;fillColor=#BC6C25;" edge="1" parent="1" source="4tsB5gcW5lk2AVEdW1aV-15" target="4tsB5gcW5lk2AVEdW1aV-14">
          <mxGeometry relative="1" as="geometry" />
        </mxCell>
        <mxCell id="4tsB5gcW5lk2AVEdW1aV-78" value="(1,N)" style="edgeLabel;html=1;align=center;verticalAlign=middle;resizable=0;points=[];fontSize=11;fontFamily=Helvetica;fontColor=#FEFAE0;" vertex="1" connectable="0" parent="4tsB5gcW5lk2AVEdW1aV-42">
          <mxGeometry x="-0.15" y="-1" relative="1" as="geometry">
            <mxPoint as="offset" />
          </mxGeometry>
        </mxCell>
        <mxCell id="4tsB5gcW5lk2AVEdW1aV-46" style="edgeStyle=none;shape=connector;rounded=0;orthogonalLoop=1;jettySize=auto;html=1;labelBackgroundColor=default;strokeColor=#DDA15E;align=center;verticalAlign=middle;fontFamily=Helvetica;fontSize=11;fontColor=#FEFAE0;endArrow=none;endFill=0;fillColor=#BC6C25;" edge="1" parent="1" source="4tsB5gcW5lk2AVEdW1aV-15" target="4tsB5gcW5lk2AVEdW1aV-45">
          <mxGeometry relative="1" as="geometry" />
        </mxCell>
        <mxCell id="4tsB5gcW5lk2AVEdW1aV-79" value="(1,N)" style="edgeLabel;html=1;align=center;verticalAlign=middle;resizable=0;points=[];fontSize=11;fontFamily=Helvetica;fontColor=#FEFAE0;" vertex="1" connectable="0" parent="4tsB5gcW5lk2AVEdW1aV-46">
          <mxGeometry x="-0.3143" y="-3" relative="1" as="geometry">
            <mxPoint as="offset" />
          </mxGeometry>
        </mxCell>
        <mxCell id="4tsB5gcW5lk2AVEdW1aV-15" value="Vende" style="shape=rhombus;perimeter=rhombusPerimeter;whiteSpace=wrap;html=1;align=center;labelBackgroundColor=none;fillColor=#BC6C25;strokeColor=#DDA15E;fontColor=#FEFAE0;" vertex="1" parent="1">
          <mxGeometry x="400" y="310" width="120" height="60" as="geometry" />
        </mxCell>
        <mxCell id="4tsB5gcW5lk2AVEdW1aV-44" style="edgeStyle=none;shape=connector;rounded=0;orthogonalLoop=1;jettySize=auto;html=1;labelBackgroundColor=default;strokeColor=#DDA15E;align=center;verticalAlign=middle;fontFamily=Helvetica;fontSize=11;fontColor=#FEFAE0;endArrow=none;endFill=0;fillColor=#BC6C25;" edge="1" parent="1" source="4tsB5gcW5lk2AVEdW1aV-16" target="4tsB5gcW5lk2AVEdW1aV-13">
          <mxGeometry relative="1" as="geometry" />
        </mxCell>
        <mxCell id="4tsB5gcW5lk2AVEdW1aV-75" value="(1,1)" style="edgeLabel;html=1;align=center;verticalAlign=middle;resizable=0;points=[];fontSize=11;fontFamily=Helvetica;fontColor=#FEFAE0;" vertex="1" connectable="0" parent="4tsB5gcW5lk2AVEdW1aV-44">
          <mxGeometry x="-0.0667" y="3" relative="1" as="geometry">
            <mxPoint as="offset" />
          </mxGeometry>
        </mxCell>
        <mxCell id="4tsB5gcW5lk2AVEdW1aV-16" value="Suministra" style="shape=rhombus;perimeter=rhombusPerimeter;whiteSpace=wrap;html=1;align=center;labelBackgroundColor=none;fillColor=#BC6C25;strokeColor=#DDA15E;fontColor=#FEFAE0;" vertex="1" parent="1">
          <mxGeometry x="590" y="450" width="120" height="60" as="geometry" />
        </mxCell>
        <mxCell id="4tsB5gcW5lk2AVEdW1aV-17" value="Dieta" style="ellipse;whiteSpace=wrap;html=1;align=center;labelBackgroundColor=none;fillColor=#BC6C25;strokeColor=#DDA15E;fontColor=#FEFAE0;" vertex="1" parent="1">
          <mxGeometry x="80" y="440" width="100" height="40" as="geometry" />
        </mxCell>
        <mxCell id="4tsB5gcW5lk2AVEdW1aV-18" value="Horas_Extra" style="ellipse;whiteSpace=wrap;html=1;align=center;labelBackgroundColor=none;fillColor=#BC6C25;strokeColor=#DDA15E;fontColor=#FEFAE0;" vertex="1" parent="1">
          <mxGeometry x="-110" y="420" width="100" height="40" as="geometry" />
        </mxCell>
        <mxCell id="4tsB5gcW5lk2AVEdW1aV-19" value="Comision" style="ellipse;whiteSpace=wrap;html=1;align=center;labelBackgroundColor=none;fillColor=#BC6C25;strokeColor=#DDA15E;fontColor=#FEFAE0;" vertex="1" parent="1">
          <mxGeometry x="270" y="400" width="100" height="40" as="geometry" />
        </mxCell>
        <mxCell id="4tsB5gcW5lk2AVEdW1aV-37" style="edgeStyle=none;shape=connector;rounded=0;orthogonalLoop=1;jettySize=auto;html=1;labelBackgroundColor=default;strokeColor=#DDA15E;align=center;verticalAlign=middle;fontFamily=Helvetica;fontSize=11;fontColor=#FEFAE0;endArrow=none;endFill=0;fillColor=#BC6C25;" edge="1" parent="1" source="4tsB5gcW5lk2AVEdW1aV-20" target="4tsB5gcW5lk2AVEdW1aV-3">
          <mxGeometry relative="1" as="geometry" />
        </mxCell>
        <mxCell id="4tsB5gcW5lk2AVEdW1aV-20" value="Tipo_Empleado" style="ellipse;whiteSpace=wrap;html=1;align=center;labelBackgroundColor=none;fillColor=#BC6C25;strokeColor=#DDA15E;fontColor=#FEFAE0;" vertex="1" parent="1">
          <mxGeometry x="240" y="200" width="100" height="40" as="geometry" />
        </mxCell>
        <mxCell id="4tsB5gcW5lk2AVEdW1aV-21" style="edgeStyle=none;shape=connector;rounded=0;orthogonalLoop=1;jettySize=auto;html=1;labelBackgroundColor=none;strokeColor=#DDA15E;align=center;verticalAlign=middle;fontFamily=Helvetica;fontSize=11;fontColor=default;endArrow=none;endFill=0;fillColor=#BC6C25;" edge="1" parent="1" source="4tsB5gcW5lk2AVEdW1aV-24" target="4tsB5gcW5lk2AVEdW1aV-25">
          <mxGeometry relative="1" as="geometry" />
        </mxCell>
        <mxCell id="4tsB5gcW5lk2AVEdW1aV-22" style="edgeStyle=none;shape=connector;rounded=0;orthogonalLoop=1;jettySize=auto;html=1;labelBackgroundColor=none;strokeColor=#DDA15E;align=center;verticalAlign=middle;fontFamily=Helvetica;fontSize=11;fontColor=default;endArrow=none;endFill=0;fillColor=#BC6C25;" edge="1" parent="1" source="4tsB5gcW5lk2AVEdW1aV-24" target="4tsB5gcW5lk2AVEdW1aV-26">
          <mxGeometry relative="1" as="geometry" />
        </mxCell>
        <mxCell id="4tsB5gcW5lk2AVEdW1aV-23" style="edgeStyle=none;shape=connector;rounded=0;orthogonalLoop=1;jettySize=auto;html=1;labelBackgroundColor=none;strokeColor=#DDA15E;align=center;verticalAlign=middle;fontFamily=Helvetica;fontSize=11;fontColor=default;endArrow=none;endFill=0;fillColor=#BC6C25;" edge="1" parent="1" source="4tsB5gcW5lk2AVEdW1aV-24" target="4tsB5gcW5lk2AVEdW1aV-27">
          <mxGeometry relative="1" as="geometry" />
        </mxCell>
        <mxCell id="4tsB5gcW5lk2AVEdW1aV-24" value="Direccion" style="ellipse;whiteSpace=wrap;html=1;align=center;strokeColor=#DDA15E;fontFamily=Helvetica;fontSize=11;fontColor=#FEFAE0;fillColor=#BC6C25;labelBackgroundColor=none;" vertex="1" parent="1">
          <mxGeometry x="75" y="10" width="100" height="40" as="geometry" />
        </mxCell>
        <mxCell id="4tsB5gcW5lk2AVEdW1aV-25" value="Calle" style="ellipse;whiteSpace=wrap;html=1;align=center;strokeColor=#DDA15E;fontFamily=Helvetica;fontSize=11;fontColor=#FEFAE0;fillColor=#BC6C25;labelBackgroundColor=none;" vertex="1" parent="1">
          <mxGeometry y="-30" width="100" height="40" as="geometry" />
        </mxCell>
        <mxCell id="4tsB5gcW5lk2AVEdW1aV-26" value="Num" style="ellipse;whiteSpace=wrap;html=1;align=center;strokeColor=#DDA15E;fontFamily=Helvetica;fontSize=11;fontColor=#FEFAE0;fillColor=#BC6C25;labelBackgroundColor=none;" vertex="1" parent="1">
          <mxGeometry x="65" y="-70" width="100" height="40" as="geometry" />
        </mxCell>
        <mxCell id="4tsB5gcW5lk2AVEdW1aV-27" value="Localidad" style="ellipse;whiteSpace=wrap;html=1;align=center;strokeColor=#DDA15E;fontFamily=Helvetica;fontSize=11;fontColor=#FEFAE0;fillColor=#BC6C25;labelBackgroundColor=none;" vertex="1" parent="1">
          <mxGeometry x="150" y="-40" width="100" height="40" as="geometry" />
        </mxCell>
        <mxCell id="4tsB5gcW5lk2AVEdW1aV-28" value="Nombre" style="ellipse;whiteSpace=wrap;html=1;align=center;strokeColor=#DDA15E;fontColor=#FEFAE0;fillColor=#BC6C25;" vertex="1" parent="1">
          <mxGeometry x="180" y="30" width="100" height="40" as="geometry" />
        </mxCell>
        <mxCell id="4tsB5gcW5lk2AVEdW1aV-29" value="Salario" style="ellipse;whiteSpace=wrap;html=1;align=center;strokeColor=#DDA15E;fontColor=#FEFAE0;fillColor=#BC6C25;" vertex="1" parent="1">
          <mxGeometry x="220" y="80" width="100" height="40" as="geometry" />
        </mxCell>
        <mxCell id="4tsB5gcW5lk2AVEdW1aV-30" value="Telefono" style="ellipse;whiteSpace=wrap;html=1;align=center;strokeColor=#DDA15E;fontColor=#FEFAE0;fillColor=#BC6C25;" vertex="1" parent="1">
          <mxGeometry x="-40" y="50" width="100" height="40" as="geometry" />
        </mxCell>
        <mxCell id="4tsB5gcW5lk2AVEdW1aV-31" value="ID_Empleado" style="ellipse;whiteSpace=wrap;html=1;align=center;fontStyle=4;strokeColor=#DDA15E;fontColor=#FEFAE0;fillColor=#BC6C25;" vertex="1" parent="1">
          <mxGeometry x="-70" y="120" width="100" height="40" as="geometry" />
        </mxCell>
        <mxCell id="4tsB5gcW5lk2AVEdW1aV-68" style="edgeStyle=none;shape=connector;rounded=0;orthogonalLoop=1;jettySize=auto;html=1;labelBackgroundColor=default;strokeColor=#DDA15E;align=center;verticalAlign=middle;fontFamily=Helvetica;fontSize=11;fontColor=#FEFAE0;endArrow=none;endFill=0;fillColor=#BC6C25;" edge="1" parent="1" source="4tsB5gcW5lk2AVEdW1aV-45" target="4tsB5gcW5lk2AVEdW1aV-66">
          <mxGeometry relative="1" as="geometry" />
        </mxCell>
        <mxCell id="4tsB5gcW5lk2AVEdW1aV-69" style="edgeStyle=none;shape=connector;rounded=0;orthogonalLoop=1;jettySize=auto;html=1;labelBackgroundColor=default;strokeColor=#DDA15E;align=center;verticalAlign=middle;fontFamily=Helvetica;fontSize=11;fontColor=#FEFAE0;endArrow=none;endFill=0;fillColor=#BC6C25;" edge="1" parent="1" source="4tsB5gcW5lk2AVEdW1aV-45" target="4tsB5gcW5lk2AVEdW1aV-67">
          <mxGeometry relative="1" as="geometry" />
        </mxCell>
        <mxCell id="4tsB5gcW5lk2AVEdW1aV-45" value="ZONA_VENTA" style="whiteSpace=wrap;html=1;align=center;strokeColor=#DDA15E;fontFamily=Helvetica;fontSize=11;fontColor=#FEFAE0;fillColor=#BC6C25;" vertex="1" parent="1">
          <mxGeometry x="410" y="440" width="100" height="40" as="geometry" />
        </mxCell>
        <mxCell id="4tsB5gcW5lk2AVEdW1aV-49" style="edgeStyle=none;shape=connector;rounded=0;orthogonalLoop=1;jettySize=auto;html=1;labelBackgroundColor=default;strokeColor=#DDA15E;align=center;verticalAlign=middle;fontFamily=Helvetica;fontSize=11;fontColor=#FEFAE0;endArrow=none;endFill=0;fillColor=#BC6C25;" edge="1" parent="1" source="4tsB5gcW5lk2AVEdW1aV-47" target="4tsB5gcW5lk2AVEdW1aV-15">
          <mxGeometry relative="1" as="geometry" />
        </mxCell>
        <mxCell id="4tsB5gcW5lk2AVEdW1aV-47" value="Fecha" style="ellipse;whiteSpace=wrap;html=1;align=center;strokeColor=#DDA15E;fontFamily=Helvetica;fontSize=11;fontColor=#FEFAE0;fillColor=#BC6C25;" vertex="1" parent="1">
          <mxGeometry x="364" y="230" width="100" height="40" as="geometry" />
        </mxCell>
        <mxCell id="4tsB5gcW5lk2AVEdW1aV-50" style="edgeStyle=none;shape=connector;rounded=0;orthogonalLoop=1;jettySize=auto;html=1;labelBackgroundColor=default;strokeColor=#DDA15E;align=center;verticalAlign=middle;fontFamily=Helvetica;fontSize=11;fontColor=#FEFAE0;endArrow=none;endFill=0;fillColor=#BC6C25;" edge="1" parent="1" source="4tsB5gcW5lk2AVEdW1aV-48" target="4tsB5gcW5lk2AVEdW1aV-15">
          <mxGeometry relative="1" as="geometry" />
        </mxCell>
        <mxCell id="4tsB5gcW5lk2AVEdW1aV-48" value="Unidades" style="ellipse;whiteSpace=wrap;html=1;align=center;strokeColor=#DDA15E;fontFamily=Helvetica;fontSize=11;fontColor=#FEFAE0;fillColor=#BC6C25;" vertex="1" parent="1">
          <mxGeometry x="480" y="230" width="100" height="40" as="geometry" />
        </mxCell>
        <mxCell id="4tsB5gcW5lk2AVEdW1aV-51" value="Stock" style="ellipse;whiteSpace=wrap;html=1;align=center;strokeColor=#DDA15E;fontFamily=Helvetica;fontSize=11;fontColor=#FEFAE0;fillColor=#BC6C25;" vertex="1" parent="1">
          <mxGeometry x="610" y="220" width="100" height="40" as="geometry" />
        </mxCell>
        <mxCell id="4tsB5gcW5lk2AVEdW1aV-52" value="Precio" style="ellipse;whiteSpace=wrap;html=1;align=center;strokeColor=#DDA15E;fontFamily=Helvetica;fontSize=11;fontColor=#FEFAE0;fillColor=#BC6C25;" vertex="1" parent="1">
          <mxGeometry x="720" y="250" width="100" height="40" as="geometry" />
        </mxCell>
        <mxCell id="4tsB5gcW5lk2AVEdW1aV-53" value="Nombre" style="ellipse;whiteSpace=wrap;html=1;align=center;strokeColor=#DDA15E;fontFamily=Helvetica;fontSize=11;fontColor=#FEFAE0;fillColor=#BC6C25;" vertex="1" parent="1">
          <mxGeometry x="760" y="310" width="100" height="40" as="geometry" />
        </mxCell>
        <mxCell id="4tsB5gcW5lk2AVEdW1aV-54" style="edgeStyle=none;shape=connector;rounded=0;orthogonalLoop=1;jettySize=auto;html=1;exitX=0.5;exitY=1;exitDx=0;exitDy=0;labelBackgroundColor=default;strokeColor=#DDA15E;align=center;verticalAlign=middle;fontFamily=Helvetica;fontSize=11;fontColor=#FEFAE0;endArrow=none;endFill=0;fillColor=#BC6C25;" edge="1" parent="1" source="4tsB5gcW5lk2AVEdW1aV-52" target="4tsB5gcW5lk2AVEdW1aV-52">
          <mxGeometry relative="1" as="geometry" />
        </mxCell>
        <mxCell id="4tsB5gcW5lk2AVEdW1aV-58" value="ID" style="ellipse;whiteSpace=wrap;html=1;align=center;fontStyle=4;strokeColor=#DDA15E;fontFamily=Helvetica;fontSize=11;fontColor=#FEFAE0;fillColor=#BC6C25;" vertex="1" parent="1">
          <mxGeometry x="740" y="370" width="100" height="40" as="geometry" />
        </mxCell>
        <mxCell id="4tsB5gcW5lk2AVEdW1aV-60" value="Nombre" style="ellipse;whiteSpace=wrap;html=1;align=center;strokeColor=#DDA15E;fontColor=#FEFAE0;fillColor=#BC6C25;" vertex="1" parent="1">
          <mxGeometry x="530" y="680" width="100" height="40" as="geometry" />
        </mxCell>
        <mxCell id="4tsB5gcW5lk2AVEdW1aV-61" value="Telefono" style="ellipse;whiteSpace=wrap;html=1;align=center;strokeColor=#DDA15E;fontColor=#FEFAE0;fillColor=#BC6C25;" vertex="1" parent="1">
          <mxGeometry x="650" y="680" width="100" height="40" as="geometry" />
        </mxCell>
        <mxCell id="4tsB5gcW5lk2AVEdW1aV-62" value="ID_Proveedor" style="ellipse;whiteSpace=wrap;html=1;align=center;fontStyle=4;strokeColor=#DDA15E;fontFamily=Helvetica;fontSize=11;fontColor=#FEFAE0;fillColor=#BC6C25;" vertex="1" parent="1">
          <mxGeometry x="740" y="600" width="100" height="40" as="geometry" />
        </mxCell>
        <mxCell id="4tsB5gcW5lk2AVEdW1aV-66" value="Nombre" style="ellipse;whiteSpace=wrap;html=1;align=center;strokeColor=#DDA15E;fontColor=#FEFAE0;fillColor=#BC6C25;" vertex="1" parent="1">
          <mxGeometry x="330" y="520" width="100" height="40" as="geometry" />
        </mxCell>
        <mxCell id="4tsB5gcW5lk2AVEdW1aV-67" value="ID_Zona" style="ellipse;whiteSpace=wrap;html=1;align=center;fontStyle=4;strokeColor=#DDA15E;fontFamily=Helvetica;fontSize=11;fontColor=#FEFAE0;fillColor=#BC6C25;" vertex="1" parent="1">
          <mxGeometry x="460" y="520" width="100" height="40" as="geometry" />
        </mxCell>
        <mxCell id="4tsB5gcW5lk2AVEdW1aV-74" value="(1,1)" style="text;html=1;align=center;verticalAlign=middle;resizable=0;points=[];autosize=1;strokeColor=none;fillColor=none;fontSize=11;fontFamily=Helvetica;fontColor=#FEFAE0;" vertex="1" parent="1">
          <mxGeometry x="135" y="158" width="50" height="30" as="geometry" />
        </mxCell>
        <mxCell id="4tsB5gcW5lk2AVEdW1aV-80" value="&lt;font style=&quot;font-size: 14px;&quot;&gt;&lt;b&gt;1:N&lt;/b&gt;&lt;/font&gt;" style="text;strokeColor=none;fillColor=none;spacingLeft=4;spacingRight=4;overflow=hidden;rotatable=0;points=[[0,0.5],[1,0.5]];portConstraint=eastwest;fontSize=11;whiteSpace=wrap;html=1;fontFamily=Helvetica;fontColor=#FEFAE0;" vertex="1" parent="1">
          <mxGeometry x="730" y="465" width="40" height="30" as="geometry" />
        </mxCell>
        <mxCell id="4tsB5gcW5lk2AVEdW1aV-81" value="&lt;font style=&quot;font-size: 14px;&quot;&gt;&lt;b&gt;N:M:P&lt;/b&gt;&lt;/font&gt;" style="text;strokeColor=none;fillColor=none;spacingLeft=4;spacingRight=4;overflow=hidden;rotatable=0;points=[[0,0.5],[1,0.5]];portConstraint=eastwest;fontSize=11;whiteSpace=wrap;html=1;fontFamily=Helvetica;fontColor=#FEFAE0;" vertex="1" parent="1">
          <mxGeometry x="500" y="350" width="50" height="30" as="geometry" />
        </mxCell>
      </root>
    </mxGraphModel>
  </diagram>
</mxfile>
